<mxfile host="65bd71144e">
    <diagram id="Vcby-pPesS-RJyGnUZok" name="第 1 页">
        <mxGraphModel dx="858" dy="493" grid="0" gridSize="10" guides="1" tooltips="1" connect="1" arrows="1" fold="1" page="1" pageScale="1" pageWidth="1654" pageHeight="2336" math="0" shadow="0">
            <root>
                <mxCell id="0"/>
                <mxCell id="1" parent="0"/>
                <mxCell id="52" value="" style="edgeStyle=orthogonalEdgeStyle;rounded=1;orthogonalLoop=1;jettySize=auto;html=1;strokeWidth=2;endArrow=none;strokeColor=#A7BFC9;fontStyle=1" parent="1" target="13" edge="1">
                    <mxGeometry relative="1" as="geometry">
                        <mxPoint x="160" y="250" as="sourcePoint"/>
                        <mxPoint x="270" y="250" as="targetPoint"/>
                        <Array as="points"/>
                    </mxGeometry>
                </mxCell>
                <mxCell id="12" style="edgeStyle=orthogonalEdgeStyle;rounded=1;orthogonalLoop=1;jettySize=auto;html=1;strokeWidth=2;startArrow=none;strokeColor=#A7BFC9;fontStyle=1;endArrow=block;endFill=1;" parent="1" source="49" target="3" edge="1">
                    <mxGeometry relative="1" as="geometry">
                        <mxPoint x="160" y="250" as="sourcePoint"/>
                        <Array as="points">
                            <mxPoint x="290" y="250"/>
                            <mxPoint x="290" y="250"/>
                        </Array>
                    </mxGeometry>
                </mxCell>
                <mxCell id="10" style="edgeStyle=orthogonalEdgeStyle;rounded=1;orthogonalLoop=1;jettySize=auto;html=1;exitX=1;exitY=0.25;exitDx=0;exitDy=0;entryX=0.5;entryY=1;entryDx=0;entryDy=0;strokeWidth=2;fontStyle=1;strokeColor=#A7BFC9;endArrow=block;endFill=1;" parent="1" source="3" target="7" edge="1">
                    <mxGeometry relative="1" as="geometry"/>
                </mxCell>
                <mxCell id="3" value="Task" style="rounded=0;whiteSpace=wrap;html=1;fillColor=#EDF2F4;strokeColor=#FFFFFF;strokeWidth=2;fontStyle=1" parent="1" vertex="1">
                    <mxGeometry x="342" y="220" width="96" height="40" as="geometry"/>
                </mxCell>
                <mxCell id="8" style="edgeStyle=orthogonalEdgeStyle;rounded=1;orthogonalLoop=1;jettySize=auto;html=1;entryX=0.5;entryY=0;entryDx=0;entryDy=0;strokeWidth=2;fontStyle=1;strokeColor=#A7BFC9;endArrow=block;endFill=1;" parent="1" source="4" target="6" edge="1">
                    <mxGeometry relative="1" as="geometry"/>
                </mxCell>
                <mxCell id="4" value="State" style="shape=cylinder3;whiteSpace=wrap;html=1;boundedLbl=1;backgroundOutline=1;size=15;strokeWidth=2;strokeColor=#FFFFFF;fillColor=#EDF2F4;fontStyle=1" parent="1" vertex="1">
                    <mxGeometry x="340" y="80" width="100" height="80" as="geometry"/>
                </mxCell>
                <mxCell id="5" value="" style="whiteSpace=wrap;html=1;aspect=fixed;strokeWidth=2;fillColor=#345253;strokeColor=#FFFFFF;fontStyle=1" parent="1" vertex="1">
                    <mxGeometry x="375" y="90" width="30" height="30" as="geometry"/>
                </mxCell>
                <mxCell id="9" style="edgeStyle=orthogonalEdgeStyle;rounded=1;orthogonalLoop=1;jettySize=auto;html=1;entryX=0;entryY=0.25;entryDx=0;entryDy=0;strokeWidth=2;exitX=0.5;exitY=1;exitDx=0;exitDy=0;fontStyle=1;endArrow=block;endFill=1;strokeColor=#A7BFC9;" parent="1" source="6" target="3" edge="1">
                    <mxGeometry relative="1" as="geometry"/>
                </mxCell>
                <mxCell id="6" value="" style="whiteSpace=wrap;html=1;aspect=fixed;strokeWidth=2;fillColor=#345253;strokeColor=#FFFFFF;fontStyle=1" parent="1" vertex="1">
                    <mxGeometry x="270" y="150" width="30" height="30" as="geometry"/>
                </mxCell>
                <mxCell id="11" style="edgeStyle=orthogonalEdgeStyle;rounded=1;orthogonalLoop=1;jettySize=auto;html=1;entryX=1;entryY=0.5;entryDx=0;entryDy=0;entryPerimeter=0;strokeWidth=2;exitX=0.5;exitY=0;exitDx=0;exitDy=0;fontStyle=1;strokeColor=#A7BFC9;endArrow=block;endFill=1;" parent="1" source="7" target="4" edge="1">
                    <mxGeometry relative="1" as="geometry"/>
                </mxCell>
                <mxCell id="7" value="" style="whiteSpace=wrap;html=1;aspect=fixed;strokeWidth=2;fillColor=#345253;strokeColor=#FFFFFF;fontStyle=1" parent="1" vertex="1">
                    <mxGeometry x="480" y="150" width="30" height="30" as="geometry"/>
                </mxCell>
                <mxCell id="49" value="" style="ellipse;whiteSpace=wrap;html=1;aspect=fixed;strokeColor=#FFFFFF;strokeWidth=2;fillColor=#6E96A6;fontStyle=1" parent="1" vertex="1">
                    <mxGeometry x="270" y="235" width="30" height="30" as="geometry"/>
                </mxCell>
                <mxCell id="50" value="" style="edgeStyle=orthogonalEdgeStyle;rounded=1;orthogonalLoop=1;jettySize=auto;html=1;strokeWidth=2;endArrow=none;startArrow=none;strokeColor=#A7BFC9;fontStyle=1" parent="1" source="51" target="49" edge="1">
                    <mxGeometry relative="1" as="geometry">
                        <mxPoint x="160" y="250" as="sourcePoint"/>
                        <mxPoint x="342" y="250.0344827586207" as="targetPoint"/>
                        <Array as="points"/>
                    </mxGeometry>
                </mxCell>
                <mxCell id="13" value="" style="ellipse;whiteSpace=wrap;html=1;aspect=fixed;strokeColor=#FFFFFF;strokeWidth=2;fillColor=#6E96A6;fontStyle=1" parent="1" vertex="1">
                    <mxGeometry x="170" y="235" width="30" height="30" as="geometry"/>
                </mxCell>
                <mxCell id="51" value="" style="ellipse;whiteSpace=wrap;html=1;aspect=fixed;strokeColor=#FFFFFF;strokeWidth=2;fillColor=#6E96A6;fontStyle=1" parent="1" vertex="1">
                    <mxGeometry x="220" y="235" width="30" height="30" as="geometry"/>
                </mxCell>
                <mxCell id="53" value="" style="edgeStyle=orthogonalEdgeStyle;rounded=1;orthogonalLoop=1;jettySize=auto;html=1;strokeWidth=2;endArrow=none;startArrow=none;strokeColor=#A7BFC9;fontStyle=1" parent="1" source="13" target="51" edge="1">
                    <mxGeometry relative="1" as="geometry">
                        <mxPoint x="210" y="250" as="sourcePoint"/>
                        <mxPoint x="270" y="250" as="targetPoint"/>
                        <Array as="points"/>
                    </mxGeometry>
                </mxCell>
                <mxCell id="54" value="2. Get State" style="text;html=1;strokeColor=none;fillColor=none;align=center;verticalAlign=middle;whiteSpace=wrap;rounded=0;fontFamily=Tahoma;fontStyle=1" parent="1" vertex="1">
                    <mxGeometry x="170" y="155" width="105" height="20" as="geometry"/>
                </mxCell>
                <mxCell id="55" value="3. Update State" style="text;html=1;strokeColor=none;fillColor=none;align=center;verticalAlign=middle;whiteSpace=wrap;rounded=0;fontFamily=Tahoma;fontStyle=1" parent="1" vertex="1">
                    <mxGeometry x="505" y="155" width="120" height="20" as="geometry"/>
                </mxCell>
                <mxCell id="56" value="1. Receive Input" style="text;html=1;strokeColor=none;fillColor=none;align=center;verticalAlign=middle;whiteSpace=wrap;rounded=0;fontFamily=Tahoma;fontStyle=1" parent="1" vertex="1">
                    <mxGeometry x="182.5" y="280" width="105" height="20" as="geometry"/>
                </mxCell>
                <mxCell id="57" value="" style="edgeStyle=orthogonalEdgeStyle;rounded=1;orthogonalLoop=1;jettySize=auto;html=1;strokeWidth=2;endArrow=none;strokeColor=#A7BFC9;fontStyle=1" parent="1" target="61" edge="1">
                    <mxGeometry relative="1" as="geometry">
                        <mxPoint x="443" y="250" as="sourcePoint"/>
                        <mxPoint x="553" y="250" as="targetPoint"/>
                        <Array as="points"/>
                    </mxGeometry>
                </mxCell>
                <mxCell id="58" style="edgeStyle=orthogonalEdgeStyle;rounded=1;orthogonalLoop=1;jettySize=auto;html=1;strokeWidth=2;startArrow=none;fontStyle=1;strokeColor=#A7BFC9;endArrow=block;endFill=1;" parent="1" source="59" edge="1">
                    <mxGeometry relative="1" as="geometry">
                        <mxPoint x="443" y="250" as="sourcePoint"/>
                        <mxPoint x="625" y="250" as="targetPoint"/>
                        <Array as="points">
                            <mxPoint x="573" y="250"/>
                            <mxPoint x="573" y="250"/>
                        </Array>
                    </mxGeometry>
                </mxCell>
                <mxCell id="59" value="" style="ellipse;whiteSpace=wrap;html=1;aspect=fixed;strokeColor=#FFFFFF;strokeWidth=2;fillColor=#6E96A6;fontStyle=1" parent="1" vertex="1">
                    <mxGeometry x="553" y="235" width="30" height="30" as="geometry"/>
                </mxCell>
                <mxCell id="60" value="" style="edgeStyle=orthogonalEdgeStyle;rounded=1;orthogonalLoop=1;jettySize=auto;html=1;strokeWidth=2;endArrow=none;startArrow=none;strokeColor=#A7BFC9;fontStyle=1" parent="1" source="62" target="59" edge="1">
                    <mxGeometry relative="1" as="geometry">
                        <mxPoint x="443" y="250" as="sourcePoint"/>
                        <mxPoint x="625" y="250.0344827586207" as="targetPoint"/>
                        <Array as="points"/>
                    </mxGeometry>
                </mxCell>
                <mxCell id="61" value="" style="ellipse;whiteSpace=wrap;html=1;aspect=fixed;strokeColor=#FFFFFF;strokeWidth=2;fillColor=#6E96A6;fontStyle=1" parent="1" vertex="1">
                    <mxGeometry x="453" y="235" width="30" height="30" as="geometry"/>
                </mxCell>
                <mxCell id="62" value="" style="ellipse;whiteSpace=wrap;html=1;aspect=fixed;strokeColor=#FFFFFF;strokeWidth=2;fillColor=#6E96A6;fontStyle=1" parent="1" vertex="1">
                    <mxGeometry x="503" y="235" width="30" height="30" as="geometry"/>
                </mxCell>
                <mxCell id="63" value="" style="edgeStyle=orthogonalEdgeStyle;rounded=1;orthogonalLoop=1;jettySize=auto;html=1;strokeWidth=2;endArrow=none;startArrow=none;strokeColor=#A7BFC9;fontStyle=1" parent="1" source="61" target="62" edge="1">
                    <mxGeometry relative="1" as="geometry">
                        <mxPoint x="493" y="250" as="sourcePoint"/>
                        <mxPoint x="553" y="250" as="targetPoint"/>
                        <Array as="points"/>
                    </mxGeometry>
                </mxCell>
                <mxCell id="64" value="4. Emit Result" style="text;html=1;strokeColor=none;fillColor=none;align=center;verticalAlign=middle;whiteSpace=wrap;rounded=0;fontFamily=Tahoma;fontStyle=1" parent="1" vertex="1">
                    <mxGeometry x="465.5" y="280" width="105" height="20" as="geometry"/>
                </mxCell>
            </root>
        </mxGraphModel>
    </diagram>
</mxfile>